<mxfile host="app.diagrams.net" modified="2023-08-28T18:36:26.798Z" agent="Mozilla/5.0 (Windows NT 10.0; Win64; x64) AppleWebKit/537.36 (KHTML, like Gecko) Chrome/115.0.0.0 Safari/537.36" etag="5MBmSa-i7URvCWC4Q4b9" version="21.6.9" type="device">
  <diagram name="PÃ¡gina-1" id="W7ZUEsytPgHKvjanRvyG">
    <mxGraphModel dx="1434" dy="758" grid="1" gridSize="10" guides="1" tooltips="1" connect="1" arrows="1" fold="1" page="1" pageScale="1" pageWidth="1169" pageHeight="827" math="0" shadow="0">
      <root>
        <mxCell id="0" />
        <mxCell id="1" parent="0" />
        <mxCell id="jokfvCrkXomq25lO5TGA-1" value="User&#39;s order activity diagram" style="text;strokeColor=none;fillColor=none;html=1;fontSize=24;fontStyle=1;verticalAlign=middle;align=center;labelBackgroundColor=none;" vertex="1" parent="1">
          <mxGeometry x="710" y="40" width="100" height="40" as="geometry" />
        </mxCell>
        <mxCell id="jokfvCrkXomq25lO5TGA-2" value="Project: Coffee Ordering Service" style="text;align=center;fontStyle=1;verticalAlign=middle;spacingLeft=3;spacingRight=3;strokeColor=none;rotatable=0;points=[[0,0.5],[1,0.5]];portConstraint=eastwest;html=1;labelBackgroundColor=none;" vertex="1" parent="1">
          <mxGeometry x="650" y="80" width="80" height="26" as="geometry" />
        </mxCell>
        <mxCell id="jokfvCrkXomq25lO5TGA-3" value="" style="ellipse;html=1;shape=startState;labelBackgroundColor=none;fillColor=#000000;" vertex="1" parent="1">
          <mxGeometry x="80" y="200" width="30" height="30" as="geometry" />
        </mxCell>
        <mxCell id="jokfvCrkXomq25lO5TGA-5" value="Coffe Order Start" style="text;html=1;strokeColor=none;fillColor=none;align=center;verticalAlign=middle;whiteSpace=wrap;rounded=0;labelBackgroundColor=none;" vertex="1" parent="1">
          <mxGeometry x="30" y="280" width="145" height="30" as="geometry" />
        </mxCell>
        <mxCell id="jokfvCrkXomq25lO5TGA-6" value="" style="endArrow=classic;html=1;rounded=0;labelBackgroundColor=none;fontColor=default;exitX=0.8;exitY=0.5;exitDx=0;exitDy=0;exitPerimeter=0;entryX=0;entryY=0.5;entryDx=0;entryDy=0;" edge="1" parent="1" source="jokfvCrkXomq25lO5TGA-3" target="jokfvCrkXomq25lO5TGA-7">
          <mxGeometry width="50" height="50" relative="1" as="geometry">
            <mxPoint x="110" y="214.5" as="sourcePoint" />
            <mxPoint x="170" y="215" as="targetPoint" />
          </mxGeometry>
        </mxCell>
        <mxCell id="jokfvCrkXomq25lO5TGA-15" style="edgeStyle=orthogonalEdgeStyle;rounded=0;orthogonalLoop=1;jettySize=auto;html=1;" edge="1" parent="1">
          <mxGeometry relative="1" as="geometry">
            <mxPoint x="240" y="140" as="targetPoint" />
            <mxPoint x="196" y="195" as="sourcePoint" />
            <Array as="points">
              <mxPoint x="196" y="160" />
              <mxPoint x="196" y="160" />
            </Array>
          </mxGeometry>
        </mxCell>
        <mxCell id="jokfvCrkXomq25lO5TGA-7" value="" style="rhombus;whiteSpace=wrap;html=1;labelBackgroundColor=none;" vertex="1" parent="1">
          <mxGeometry x="175" y="195" width="40" height="40" as="geometry" />
        </mxCell>
        <mxCell id="jokfvCrkXomq25lO5TGA-8" value="" style="endArrow=classic;html=1;rounded=0;labelBackgroundColor=none;fontColor=default;" edge="1" parent="1" target="jokfvCrkXomq25lO5TGA-3">
          <mxGeometry width="50" height="50" relative="1" as="geometry">
            <mxPoint x="95" y="280" as="sourcePoint" />
            <mxPoint x="94.5" y="230" as="targetPoint" />
          </mxGeometry>
        </mxCell>
        <mxCell id="jokfvCrkXomq25lO5TGA-16" value="Search product" style="rounded=1;whiteSpace=wrap;html=1;" vertex="1" parent="1">
          <mxGeometry x="240" y="110" width="120" height="60" as="geometry" />
        </mxCell>
        <mxCell id="jokfvCrkXomq25lO5TGA-17" value="" style="endArrow=classic;html=1;rounded=0;labelBackgroundColor=none;fontColor=default;entryX=0;entryY=0.5;entryDx=0;entryDy=0;" edge="1" parent="1" target="jokfvCrkXomq25lO5TGA-19">
          <mxGeometry width="50" height="50" relative="1" as="geometry">
            <mxPoint x="360" y="140" as="sourcePoint" />
            <mxPoint x="420" y="140.5" as="targetPoint" />
          </mxGeometry>
        </mxCell>
        <mxCell id="jokfvCrkXomq25lO5TGA-33" style="edgeStyle=orthogonalEdgeStyle;rounded=0;orthogonalLoop=1;jettySize=auto;html=1;" edge="1" parent="1" source="jokfvCrkXomq25lO5TGA-19">
          <mxGeometry relative="1" as="geometry">
            <mxPoint x="410" y="270" as="targetPoint" />
            <Array as="points">
              <mxPoint x="450" y="215" />
              <mxPoint x="451" y="215" />
            </Array>
          </mxGeometry>
        </mxCell>
        <mxCell id="jokfvCrkXomq25lO5TGA-35" value="&lt;font style=&quot;font-size: 12px;&quot;&gt;No&lt;/font&gt;" style="edgeLabel;html=1;align=center;verticalAlign=middle;resizable=0;points=[];" vertex="1" connectable="0" parent="jokfvCrkXomq25lO5TGA-33">
          <mxGeometry x="-0.2763" relative="1" as="geometry">
            <mxPoint as="offset" />
          </mxGeometry>
        </mxCell>
        <mxCell id="jokfvCrkXomq25lO5TGA-19" value="" style="rhombus;whiteSpace=wrap;html=1;labelBackgroundColor=none;" vertex="1" parent="1">
          <mxGeometry x="430" y="120" width="40" height="40" as="geometry" />
        </mxCell>
        <mxCell id="jokfvCrkXomq25lO5TGA-20" value="Found?" style="text;html=1;strokeColor=none;fillColor=none;align=center;verticalAlign=middle;whiteSpace=wrap;rounded=0;labelBackgroundColor=none;" vertex="1" parent="1">
          <mxGeometry x="377.5" y="90" width="145" height="30" as="geometry" />
        </mxCell>
        <mxCell id="jokfvCrkXomq25lO5TGA-21" value="" style="endArrow=classic;html=1;rounded=0;labelBackgroundColor=none;fontColor=default;" edge="1" parent="1">
          <mxGeometry width="50" height="50" relative="1" as="geometry">
            <mxPoint x="470" y="140" as="sourcePoint" />
            <mxPoint x="550" y="170" as="targetPoint" />
            <Array as="points">
              <mxPoint x="530" y="140" />
              <mxPoint x="550" y="140" />
            </Array>
          </mxGeometry>
        </mxCell>
        <mxCell id="jokfvCrkXomq25lO5TGA-28" value="Yes" style="edgeLabel;html=1;align=center;verticalAlign=middle;resizable=0;points=[];fontSize=12;" vertex="1" connectable="0" parent="jokfvCrkXomq25lO5TGA-21">
          <mxGeometry x="-0.1273" y="-1" relative="1" as="geometry">
            <mxPoint y="-1" as="offset" />
          </mxGeometry>
        </mxCell>
        <mxCell id="jokfvCrkXomq25lO5TGA-25" value="View product" style="rounded=1;whiteSpace=wrap;html=1;" vertex="1" parent="1">
          <mxGeometry x="490" y="175" width="120" height="60" as="geometry" />
        </mxCell>
        <mxCell id="jokfvCrkXomq25lO5TGA-40" style="edgeStyle=orthogonalEdgeStyle;rounded=0;orthogonalLoop=1;jettySize=auto;html=1;endArrow=none;endFill=0;" edge="1" parent="1">
          <mxGeometry relative="1" as="geometry">
            <mxPoint x="550" y="340" as="targetPoint" />
            <mxPoint x="350" y="295" as="sourcePoint" />
            <Array as="points">
              <mxPoint x="350" y="340" />
            </Array>
          </mxGeometry>
        </mxCell>
        <mxCell id="jokfvCrkXomq25lO5TGA-36" value="Browse categories" style="rounded=1;whiteSpace=wrap;html=1;" vertex="1" parent="1">
          <mxGeometry x="290" y="235" width="120" height="60" as="geometry" />
        </mxCell>
        <mxCell id="jokfvCrkXomq25lO5TGA-37" value="" style="endArrow=classic;html=1;rounded=0;labelBackgroundColor=none;fontColor=default;exitX=1;exitY=0.5;exitDx=0;exitDy=0;" edge="1" parent="1">
          <mxGeometry width="50" height="50" relative="1" as="geometry">
            <mxPoint x="215" y="214" as="sourcePoint" />
            <mxPoint x="370" y="234" as="targetPoint" />
            <Array as="points">
              <mxPoint x="370" y="214" />
            </Array>
          </mxGeometry>
        </mxCell>
        <mxCell id="jokfvCrkXomq25lO5TGA-48" value="" style="endArrow=classic;html=1;rounded=0;labelBackgroundColor=none;fontColor=default;entryX=0.5;entryY=1;entryDx=0;entryDy=0;" edge="1" parent="1" target="jokfvCrkXomq25lO5TGA-25">
          <mxGeometry width="50" height="50" relative="1" as="geometry">
            <mxPoint x="550" y="340" as="sourcePoint" />
            <mxPoint x="549.5" y="290" as="targetPoint" />
          </mxGeometry>
        </mxCell>
        <mxCell id="jokfvCrkXomq25lO5TGA-51" value="" style="endArrow=classic;html=1;rounded=0;labelBackgroundColor=none;fontColor=default;entryX=0;entryY=0.5;entryDx=0;entryDy=0;" edge="1" parent="1">
          <mxGeometry width="50" height="50" relative="1" as="geometry">
            <mxPoint x="610" y="204.5" as="sourcePoint" />
            <mxPoint x="680" y="204.5" as="targetPoint" />
          </mxGeometry>
        </mxCell>
        <mxCell id="jokfvCrkXomq25lO5TGA-52" value="Set up product parameters" style="rounded=1;whiteSpace=wrap;html=1;" vertex="1" parent="1">
          <mxGeometry x="680" y="175" width="120" height="60" as="geometry" />
        </mxCell>
        <mxCell id="jokfvCrkXomq25lO5TGA-54" value="" style="endArrow=classic;html=1;rounded=0;labelBackgroundColor=none;fontColor=default;entryX=0;entryY=0.5;entryDx=0;entryDy=0;" edge="1" parent="1">
          <mxGeometry width="50" height="50" relative="1" as="geometry">
            <mxPoint x="800" y="204.5" as="sourcePoint" />
            <mxPoint x="870" y="204.5" as="targetPoint" />
          </mxGeometry>
        </mxCell>
        <mxCell id="jokfvCrkXomq25lO5TGA-56" style="edgeStyle=orthogonalEdgeStyle;rounded=0;orthogonalLoop=1;jettySize=auto;html=1;" edge="1" parent="1" source="jokfvCrkXomq25lO5TGA-55">
          <mxGeometry relative="1" as="geometry">
            <mxPoint x="930" y="280" as="targetPoint" />
          </mxGeometry>
        </mxCell>
        <mxCell id="jokfvCrkXomq25lO5TGA-55" value="Add to cart" style="rounded=1;whiteSpace=wrap;html=1;" vertex="1" parent="1">
          <mxGeometry x="870" y="175" width="120" height="60" as="geometry" />
        </mxCell>
        <mxCell id="jokfvCrkXomq25lO5TGA-57" value="" style="rhombus;whiteSpace=wrap;html=1;labelBackgroundColor=none;" vertex="1" parent="1">
          <mxGeometry x="910" y="280" width="40" height="40" as="geometry" />
        </mxCell>
        <mxCell id="jokfvCrkXomq25lO5TGA-58" value="Registered?" style="text;html=1;align=center;verticalAlign=middle;resizable=0;points=[];autosize=1;strokeColor=none;fillColor=none;" vertex="1" parent="1">
          <mxGeometry x="885" y="318" width="90" height="30" as="geometry" />
        </mxCell>
        <mxCell id="jokfvCrkXomq25lO5TGA-60" value="" style="endArrow=none;html=1;rounded=0;" edge="1" parent="1">
          <mxGeometry width="50" height="50" relative="1" as="geometry">
            <mxPoint x="950" y="300" as="sourcePoint" />
            <mxPoint x="1030" y="300" as="targetPoint" />
          </mxGeometry>
        </mxCell>
        <mxCell id="jokfvCrkXomq25lO5TGA-65" value="&lt;font style=&quot;font-size: 12px;&quot;&gt;Yes&lt;/font&gt;" style="edgeLabel;html=1;align=center;verticalAlign=middle;resizable=0;points=[];" vertex="1" connectable="0" parent="jokfvCrkXomq25lO5TGA-60">
          <mxGeometry x="0.075" y="-1" relative="1" as="geometry">
            <mxPoint as="offset" />
          </mxGeometry>
        </mxCell>
        <mxCell id="jokfvCrkXomq25lO5TGA-61" value="" style="endArrow=none;html=1;rounded=0;" edge="1" parent="1">
          <mxGeometry width="50" height="50" relative="1" as="geometry">
            <mxPoint x="830" y="299.5" as="sourcePoint" />
            <mxPoint x="910" y="299.5" as="targetPoint" />
          </mxGeometry>
        </mxCell>
        <mxCell id="jokfvCrkXomq25lO5TGA-64" value="&lt;font style=&quot;font-size: 12px;&quot;&gt;No&lt;/font&gt;" style="edgeLabel;html=1;align=center;verticalAlign=middle;resizable=0;points=[];" vertex="1" connectable="0" parent="jokfvCrkXomq25lO5TGA-61">
          <mxGeometry x="-0.225" y="2" relative="1" as="geometry">
            <mxPoint y="1" as="offset" />
          </mxGeometry>
        </mxCell>
        <mxCell id="jokfvCrkXomq25lO5TGA-63" value="" style="endArrow=classic;html=1;rounded=0;" edge="1" parent="1">
          <mxGeometry width="50" height="50" relative="1" as="geometry">
            <mxPoint x="830" y="300" as="sourcePoint" />
            <mxPoint x="830" y="350" as="targetPoint" />
          </mxGeometry>
        </mxCell>
        <mxCell id="jokfvCrkXomq25lO5TGA-66" value="" style="endArrow=none;html=1;rounded=0;" edge="1" parent="1">
          <mxGeometry width="50" height="50" relative="1" as="geometry">
            <mxPoint x="1030" y="480" as="sourcePoint" />
            <mxPoint x="1030" y="300" as="targetPoint" />
          </mxGeometry>
        </mxCell>
        <mxCell id="jokfvCrkXomq25lO5TGA-67" value="" style="endArrow=classic;html=1;rounded=0;" edge="1" parent="1">
          <mxGeometry width="50" height="50" relative="1" as="geometry">
            <mxPoint x="1030" y="480" as="sourcePoint" />
            <mxPoint x="1000" y="480" as="targetPoint" />
          </mxGeometry>
        </mxCell>
        <mxCell id="jokfvCrkXomq25lO5TGA-68" value="User register" style="rounded=1;whiteSpace=wrap;html=1;" vertex="1" parent="1">
          <mxGeometry x="780" y="350" width="120" height="60" as="geometry" />
        </mxCell>
        <mxCell id="jokfvCrkXomq25lO5TGA-75" style="edgeStyle=orthogonalEdgeStyle;rounded=0;orthogonalLoop=1;jettySize=auto;html=1;" edge="1" parent="1" source="jokfvCrkXomq25lO5TGA-69">
          <mxGeometry relative="1" as="geometry">
            <mxPoint x="940" y="560" as="targetPoint" />
          </mxGeometry>
        </mxCell>
        <mxCell id="jokfvCrkXomq25lO5TGA-69" value="View cart" style="rounded=1;whiteSpace=wrap;html=1;" vertex="1" parent="1">
          <mxGeometry x="880" y="450" width="120" height="60" as="geometry" />
        </mxCell>
        <mxCell id="jokfvCrkXomq25lO5TGA-70" value="" style="endArrow=classic;html=1;rounded=0;labelBackgroundColor=none;fontColor=default;entryX=0.583;entryY=0.033;entryDx=0;entryDy=0;entryPerimeter=0;" edge="1" parent="1" target="jokfvCrkXomq25lO5TGA-69">
          <mxGeometry width="50" height="50" relative="1" as="geometry">
            <mxPoint x="900" y="380.5" as="sourcePoint" />
            <mxPoint x="950" y="410" as="targetPoint" />
            <Array as="points">
              <mxPoint x="930" y="380" />
              <mxPoint x="950" y="380" />
            </Array>
          </mxGeometry>
        </mxCell>
        <mxCell id="jokfvCrkXomq25lO5TGA-72" value="" style="endArrow=none;html=1;rounded=0;" edge="1" parent="1">
          <mxGeometry width="50" height="50" relative="1" as="geometry">
            <mxPoint x="195" y="490" as="sourcePoint" />
            <mxPoint x="194.5" y="235" as="targetPoint" />
          </mxGeometry>
        </mxCell>
        <mxCell id="jokfvCrkXomq25lO5TGA-73" value="" style="endArrow=classic;html=1;rounded=0;entryX=-0.017;entryY=0.65;entryDx=0;entryDy=0;entryPerimeter=0;" edge="1" parent="1" target="jokfvCrkXomq25lO5TGA-69">
          <mxGeometry width="50" height="50" relative="1" as="geometry">
            <mxPoint x="196" y="490" as="sourcePoint" />
            <mxPoint x="286" y="490" as="targetPoint" />
          </mxGeometry>
        </mxCell>
        <mxCell id="jokfvCrkXomq25lO5TGA-74" value="&lt;font style=&quot;font-size: 12px;&quot;&gt;View previously saved cart&lt;/font&gt;" style="edgeLabel;html=1;align=center;verticalAlign=middle;resizable=0;points=[];" vertex="1" connectable="0" parent="jokfvCrkXomq25lO5TGA-73">
          <mxGeometry x="-0.434" y="2" relative="1" as="geometry">
            <mxPoint as="offset" />
          </mxGeometry>
        </mxCell>
        <mxCell id="jokfvCrkXomq25lO5TGA-76" value="" style="rhombus;whiteSpace=wrap;html=1;labelBackgroundColor=none;" vertex="1" parent="1">
          <mxGeometry x="920" y="560" width="40" height="40" as="geometry" />
        </mxCell>
        <mxCell id="jokfvCrkXomq25lO5TGA-77" value="Cart is ok?" style="text;html=1;align=center;verticalAlign=middle;resizable=0;points=[];autosize=1;strokeColor=none;fillColor=none;" vertex="1" parent="1">
          <mxGeometry x="905" y="600" width="80" height="30" as="geometry" />
        </mxCell>
        <mxCell id="jokfvCrkXomq25lO5TGA-78" value="" style="endArrow=none;html=1;rounded=0;" edge="1" parent="1">
          <mxGeometry width="50" height="50" relative="1" as="geometry">
            <mxPoint x="960" y="579.5" as="sourcePoint" />
            <mxPoint x="1040" y="579.5" as="targetPoint" />
          </mxGeometry>
        </mxCell>
        <mxCell id="jokfvCrkXomq25lO5TGA-79" value="&lt;font style=&quot;font-size: 12px;&quot;&gt;Yes&lt;/font&gt;" style="edgeLabel;html=1;align=center;verticalAlign=middle;resizable=0;points=[];" vertex="1" connectable="0" parent="jokfvCrkXomq25lO5TGA-78">
          <mxGeometry x="0.075" y="-1" relative="1" as="geometry">
            <mxPoint as="offset" />
          </mxGeometry>
        </mxCell>
        <mxCell id="jokfvCrkXomq25lO5TGA-80" value="" style="endArrow=none;html=1;rounded=0;" edge="1" parent="1">
          <mxGeometry width="50" height="50" relative="1" as="geometry">
            <mxPoint x="1040" y="680" as="sourcePoint" />
            <mxPoint x="1040" y="580" as="targetPoint" />
          </mxGeometry>
        </mxCell>
        <mxCell id="jokfvCrkXomq25lO5TGA-83" value="" style="endArrow=classic;html=1;rounded=0;" edge="1" parent="1">
          <mxGeometry width="50" height="50" relative="1" as="geometry">
            <mxPoint x="1040" y="680" as="sourcePoint" />
            <mxPoint x="1000" y="680" as="targetPoint" />
          </mxGeometry>
        </mxCell>
        <mxCell id="jokfvCrkXomq25lO5TGA-84" value="" style="endArrow=classic;html=1;rounded=0;" edge="1" parent="1">
          <mxGeometry width="50" height="50" relative="1" as="geometry">
            <mxPoint x="920" y="579.5" as="sourcePoint" />
            <mxPoint x="840" y="579.5" as="targetPoint" />
          </mxGeometry>
        </mxCell>
        <mxCell id="jokfvCrkXomq25lO5TGA-85" value="&lt;font style=&quot;font-size: 12px;&quot;&gt;No&lt;/font&gt;" style="edgeLabel;html=1;align=center;verticalAlign=middle;resizable=0;points=[];" vertex="1" connectable="0" parent="jokfvCrkXomq25lO5TGA-84">
          <mxGeometry relative="1" as="geometry">
            <mxPoint as="offset" />
          </mxGeometry>
        </mxCell>
        <mxCell id="jokfvCrkXomq25lO5TGA-86" value="Checkout: choose address" style="rounded=1;whiteSpace=wrap;html=1;" vertex="1" parent="1">
          <mxGeometry x="880" y="650" width="120" height="60" as="geometry" />
        </mxCell>
        <mxCell id="jokfvCrkXomq25lO5TGA-87" value="Checkout: choose delivery type" style="rounded=1;whiteSpace=wrap;html=1;" vertex="1" parent="1">
          <mxGeometry x="720" y="650" width="120" height="60" as="geometry" />
        </mxCell>
        <mxCell id="jokfvCrkXomq25lO5TGA-88" value="" style="endArrow=classic;html=1;rounded=0;" edge="1" parent="1">
          <mxGeometry width="50" height="50" relative="1" as="geometry">
            <mxPoint x="880" y="679.5" as="sourcePoint" />
            <mxPoint x="840" y="679.5" as="targetPoint" />
          </mxGeometry>
        </mxCell>
        <mxCell id="jokfvCrkXomq25lO5TGA-89" value="" style="endArrow=classic;html=1;rounded=0;" edge="1" parent="1">
          <mxGeometry width="50" height="50" relative="1" as="geometry">
            <mxPoint x="720" y="679.5" as="sourcePoint" />
            <mxPoint x="680" y="679.5" as="targetPoint" />
          </mxGeometry>
        </mxCell>
        <mxCell id="jokfvCrkXomq25lO5TGA-90" value="Checkout: choose payment type" style="rounded=1;whiteSpace=wrap;html=1;" vertex="1" parent="1">
          <mxGeometry x="560" y="650" width="120" height="60" as="geometry" />
        </mxCell>
        <mxCell id="jokfvCrkXomq25lO5TGA-91" value="" style="endArrow=classic;html=1;rounded=0;" edge="1" parent="1">
          <mxGeometry width="50" height="50" relative="1" as="geometry">
            <mxPoint x="560" y="679.5" as="sourcePoint" />
            <mxPoint x="520" y="679.5" as="targetPoint" />
          </mxGeometry>
        </mxCell>
        <mxCell id="jokfvCrkXomq25lO5TGA-92" value="" style="rhombus;whiteSpace=wrap;html=1;labelBackgroundColor=none;" vertex="1" parent="1">
          <mxGeometry x="480" y="660" width="40" height="40" as="geometry" />
        </mxCell>
        <mxCell id="jokfvCrkXomq25lO5TGA-93" value="Payment success?" style="text;html=1;align=center;verticalAlign=middle;resizable=0;points=[];autosize=1;strokeColor=none;fillColor=none;" vertex="1" parent="1">
          <mxGeometry x="440" y="700" width="120" height="30" as="geometry" />
        </mxCell>
        <mxCell id="jokfvCrkXomq25lO5TGA-94" value="" style="endArrow=classic;html=1;rounded=0;" edge="1" parent="1">
          <mxGeometry width="50" height="50" relative="1" as="geometry">
            <mxPoint x="480" y="679.5" as="sourcePoint" />
            <mxPoint x="440" y="679.5" as="targetPoint" />
          </mxGeometry>
        </mxCell>
        <mxCell id="jokfvCrkXomq25lO5TGA-95" value="&lt;font style=&quot;font-size: 12px;&quot;&gt;Yes&lt;/font&gt;" style="edgeLabel;html=1;align=center;verticalAlign=middle;resizable=0;points=[];" vertex="1" connectable="0" parent="jokfvCrkXomq25lO5TGA-94">
          <mxGeometry x="-0.1" y="-3" relative="1" as="geometry">
            <mxPoint as="offset" />
          </mxGeometry>
        </mxCell>
        <mxCell id="jokfvCrkXomq25lO5TGA-96" value="Payment sucess page" style="rounded=1;whiteSpace=wrap;html=1;" vertex="1" parent="1">
          <mxGeometry x="320" y="650" width="120" height="60" as="geometry" />
        </mxCell>
        <mxCell id="jokfvCrkXomq25lO5TGA-97" value="" style="endArrow=classic;html=1;rounded=0;" edge="1" parent="1" target="jokfvCrkXomq25lO5TGA-98">
          <mxGeometry width="50" height="50" relative="1" as="geometry">
            <mxPoint x="320" y="679.5" as="sourcePoint" />
            <mxPoint x="240" y="680" as="targetPoint" />
          </mxGeometry>
        </mxCell>
        <mxCell id="jokfvCrkXomq25lO5TGA-98" value="" style="ellipse;html=1;shape=endState;fillColor=#000000;strokeColor=#000000;" vertex="1" parent="1">
          <mxGeometry x="225" y="665" width="30" height="30" as="geometry" />
        </mxCell>
        <mxCell id="jokfvCrkXomq25lO5TGA-99" value="Coffee Order End" style="text;html=1;align=center;verticalAlign=middle;resizable=0;points=[];autosize=1;strokeColor=none;fillColor=none;" vertex="1" parent="1">
          <mxGeometry x="170" y="700" width="120" height="30" as="geometry" />
        </mxCell>
        <mxCell id="jokfvCrkXomq25lO5TGA-100" value="Update cart" style="rounded=1;whiteSpace=wrap;html=1;" vertex="1" parent="1">
          <mxGeometry x="720" y="550" width="120" height="60" as="geometry" />
        </mxCell>
        <mxCell id="jokfvCrkXomq25lO5TGA-101" value="" style="endArrow=none;html=1;rounded=0;" edge="1" parent="1">
          <mxGeometry width="50" height="50" relative="1" as="geometry">
            <mxPoint x="782" y="630" as="sourcePoint" />
            <mxPoint x="782" y="610" as="targetPoint" />
          </mxGeometry>
        </mxCell>
        <mxCell id="jokfvCrkXomq25lO5TGA-103" value="" style="endArrow=none;html=1;rounded=0;entryX=0.313;entryY=1.1;entryDx=0;entryDy=0;entryPerimeter=0;" edge="1" parent="1" target="jokfvCrkXomq25lO5TGA-77">
          <mxGeometry width="50" height="50" relative="1" as="geometry">
            <mxPoint x="783" y="630" as="sourcePoint" />
            <mxPoint x="853" y="630" as="targetPoint" />
          </mxGeometry>
        </mxCell>
        <mxCell id="jokfvCrkXomq25lO5TGA-104" value="" style="endArrow=classic;html=1;rounded=0;" edge="1" parent="1">
          <mxGeometry width="50" height="50" relative="1" as="geometry">
            <mxPoint x="930" y="633" as="sourcePoint" />
            <mxPoint x="929.5" y="653" as="targetPoint" />
          </mxGeometry>
        </mxCell>
        <mxCell id="jokfvCrkXomq25lO5TGA-105" value="Payment failure page" style="rounded=1;whiteSpace=wrap;html=1;" vertex="1" parent="1">
          <mxGeometry x="558" y="500" width="120" height="60" as="geometry" />
        </mxCell>
        <mxCell id="jokfvCrkXomq25lO5TGA-107" value="" style="rhombus;whiteSpace=wrap;html=1;labelBackgroundColor=none;" vertex="1" parent="1">
          <mxGeometry x="600" y="580" width="40" height="40" as="geometry" />
        </mxCell>
        <mxCell id="jokfvCrkXomq25lO5TGA-109" value="" style="endArrow=classic;html=1;rounded=0;exitX=0.5;exitY=1;exitDx=0;exitDy=0;" edge="1" parent="1" source="jokfvCrkXomq25lO5TGA-105">
          <mxGeometry width="50" height="50" relative="1" as="geometry">
            <mxPoint x="619.5" y="570" as="sourcePoint" />
            <mxPoint x="619.5" y="580" as="targetPoint" />
          </mxGeometry>
        </mxCell>
        <mxCell id="jokfvCrkXomq25lO5TGA-110" value="" style="endArrow=classic;html=1;rounded=0;exitX=0.5;exitY=1;exitDx=0;exitDy=0;entryX=0.5;entryY=0;entryDx=0;entryDy=0;" edge="1" parent="1" target="jokfvCrkXomq25lO5TGA-90">
          <mxGeometry width="50" height="50" relative="1" as="geometry">
            <mxPoint x="619.25" y="620" as="sourcePoint" />
            <mxPoint x="620.75" y="640" as="targetPoint" />
          </mxGeometry>
        </mxCell>
        <mxCell id="jokfvCrkXomq25lO5TGA-111" value="&lt;font style=&quot;font-size: 12px;&quot;&gt;Yes&lt;/font&gt;" style="edgeLabel;html=1;align=center;verticalAlign=middle;resizable=0;points=[];" vertex="1" connectable="0" parent="jokfvCrkXomq25lO5TGA-110">
          <mxGeometry x="-0.066" relative="1" as="geometry">
            <mxPoint as="offset" />
          </mxGeometry>
        </mxCell>
        <mxCell id="jokfvCrkXomq25lO5TGA-112" value="" style="endArrow=none;html=1;rounded=0;" edge="1" parent="1">
          <mxGeometry width="50" height="50" relative="1" as="geometry">
            <mxPoint x="640" y="600" as="sourcePoint" />
            <mxPoint x="660" y="600" as="targetPoint" />
          </mxGeometry>
        </mxCell>
        <mxCell id="jokfvCrkXomq25lO5TGA-115" value="&lt;font style=&quot;font-size: 12px;&quot;&gt;No&lt;/font&gt;" style="edgeLabel;html=1;align=center;verticalAlign=middle;resizable=0;points=[];" vertex="1" connectable="0" parent="jokfvCrkXomq25lO5TGA-112">
          <mxGeometry x="0.3" y="1" relative="1" as="geometry">
            <mxPoint as="offset" />
          </mxGeometry>
        </mxCell>
        <mxCell id="jokfvCrkXomq25lO5TGA-113" value="" style="endArrow=none;html=1;rounded=0;" edge="1" parent="1">
          <mxGeometry width="50" height="50" relative="1" as="geometry">
            <mxPoint x="660" y="600" as="sourcePoint" />
            <mxPoint x="660" y="580" as="targetPoint" />
          </mxGeometry>
        </mxCell>
        <mxCell id="jokfvCrkXomq25lO5TGA-114" value="" style="endArrow=classic;html=1;rounded=0;labelBackgroundColor=none;fontColor=default;entryX=0;entryY=0.5;entryDx=0;entryDy=0;" edge="1" parent="1" target="jokfvCrkXomq25lO5TGA-100">
          <mxGeometry width="50" height="50" relative="1" as="geometry">
            <mxPoint x="660" y="579.5" as="sourcePoint" />
            <mxPoint x="700" y="579" as="targetPoint" />
          </mxGeometry>
        </mxCell>
        <mxCell id="jokfvCrkXomq25lO5TGA-116" value="Try again?" style="text;html=1;align=center;verticalAlign=middle;resizable=0;points=[];autosize=1;strokeColor=none;fillColor=none;" vertex="1" parent="1">
          <mxGeometry x="515" y="590" width="80" height="30" as="geometry" />
        </mxCell>
        <mxCell id="jokfvCrkXomq25lO5TGA-117" value="" style="endArrow=none;html=1;rounded=0;exitX=0.5;exitY=0;exitDx=0;exitDy=0;" edge="1" parent="1" source="jokfvCrkXomq25lO5TGA-92">
          <mxGeometry width="50" height="50" relative="1" as="geometry">
            <mxPoint x="499.5" y="655" as="sourcePoint" />
            <mxPoint x="500" y="535" as="targetPoint" />
          </mxGeometry>
        </mxCell>
        <mxCell id="jokfvCrkXomq25lO5TGA-118" value="&lt;font style=&quot;font-size: 12px;&quot;&gt;No&lt;/font&gt;" style="edgeLabel;html=1;align=center;verticalAlign=middle;resizable=0;points=[];" vertex="1" connectable="0" parent="jokfvCrkXomq25lO5TGA-117">
          <mxGeometry x="-0.1166" relative="1" as="geometry">
            <mxPoint as="offset" />
          </mxGeometry>
        </mxCell>
        <mxCell id="jokfvCrkXomq25lO5TGA-119" value="" style="endArrow=classic;html=1;rounded=0;labelBackgroundColor=none;fontColor=default;entryX=0;entryY=0.5;entryDx=0;entryDy=0;" edge="1" parent="1">
          <mxGeometry width="50" height="50" relative="1" as="geometry">
            <mxPoint x="500" y="534" as="sourcePoint" />
            <mxPoint x="558" y="533.5" as="targetPoint" />
          </mxGeometry>
        </mxCell>
      </root>
    </mxGraphModel>
  </diagram>
</mxfile>
